<?xml version="1.0" encoding="UTF-8" standalone="no"?>
<svg
   width="512"
   height="408"
   version="1.1"
   id="svg33"
   sodipodi:docname="doostrap-logo.svg"
   inkscape:version="1.1.2 (0a00cf5339, 2022-02-04)"
   xmlns:inkscape="http://www.inkscape.org/namespaces/inkscape"
   xmlns:sodipodi="http://sodipodi.sourceforge.net/DTD/sodipodi-0.dtd"
   xmlns="http://www.w3.org/2000/svg"
   xmlns:svg="http://www.w3.org/2000/svg">
  <sodipodi:namedview
     id="namedview35"
     pagecolor="#ffffff"
     bordercolor="#666666"
     borderopacity="1.0"
     inkscape:pageshadow="2"
     inkscape:pageopacity="0.0"
     inkscape:pagecheckerboard="0"
     showgrid="false"
     inkscape:zoom="0.84118916"
     inkscape:cx="-93.914667"
     inkscape:cy="38.041384"
     inkscape:window-width="1920"
     inkscape:window-height="1047"
     inkscape:window-x="0"
     inkscape:window-y="0"
     inkscape:window-maximized="1"
     inkscape:current-layer="svg33" />
  <defs
     id="defs27">
    <linearGradient
       id="bs-logo-a"
       x1="76.079"
       x2="523.48"
       y1="10.798"
       y2="365.945"
       gradientUnits="userSpaceOnUse">
      <stop
         stop-color="#9013fe"
         id="stop2" />
      <stop
         offset="1"
         stop-color="#6610f2"
         id="stop4" />
    </linearGradient>
    <linearGradient
       id="bs-logo-b"
       x1="193.508"
       x2="293.514"
       y1="109.74"
       y2="278.872"
       gradientUnits="userSpaceOnUse">
      <stop
         stop-color="#fff"
         id="stop7" />
      <stop
         offset="1"
         stop-color="#f1e5fc"
         id="stop9" />
    </linearGradient>
    <filter
       id="bs-logo-c"
       width="197"
       height="249"
       x="161.901"
       y="83.457"
       color-interpolation-filters="sRGB"
       filterUnits="userSpaceOnUse">
      <feFlood
         flood-opacity="0"
         result="BackgroundImageFix"
         id="feFlood12" />
      <feColorMatrix
         in="SourceAlpha"
         values="0 0 0 0 0 0 0 0 0 0 0 0 0 0 0 0 0 0 127 0"
         id="feColorMatrix14" />
      <feOffset
         dy="4"
         id="feOffset16" />
      <feGaussianBlur
         stdDeviation="8"
         id="feGaussianBlur18" />
      <feColorMatrix
         values="0 0 0 0 0 0 0 0 0 0 0 0 0 0 0 0 0 0 0.15 0"
         id="feColorMatrix20" />
      <feBlend
         in2="BackgroundImageFix"
         result="effect1_dropShadow"
         id="feBlend22" />
      <feBlend
         in="SourceGraphic"
         in2="effect1_dropShadow"
         result="shape"
         id="feBlend24" />
    </filter>
  </defs>
  <path
     fill="url(#bs-logo-a)"
     d="M56.481 53.32C55.515 25.58 77.128 0 106.342 0h299.353c29.214 0 50.827 25.58 49.861 53.32-.928 26.647.277 61.165 8.964 89.31 8.715 28.232 23.411 46.077 47.48 48.37v26c-24.069 2.293-38.765 20.138-47.48 48.37-8.687 28.145-9.892 62.663-8.964 89.311.966 27.739-20.647 53.319-49.861 53.319H106.342c-29.214 0-50.827-25.58-49.86-53.319.927-26.648-.278-61.166-8.966-89.311C38.802 237.138 24.07 219.293 0 217v-26c24.069-2.293 38.802-20.138 47.516-48.37 8.688-28.145 9.893-62.663 8.965-89.31z"
     id="path29" />
  <text
     xml:space="preserve"
     style="font-style:normal;font-weight:normal;font-size:40px;line-height:1.25;font-family:sans-serif;fill:#000000;fill-opacity:1;stroke:none"
     x="149.03233"
     y="302.65729"
     id="text1070"><tspan
       sodipodi:role="line"
       id="tspan1068"
       x="149.03233"
       y="302.65729"
       style="font-style:normal;font-variant:normal;font-weight:bold;font-stretch:normal;font-size:266.667px;font-family:sans-serif;-inkscape-font-specification:'sans-serif, Bold';font-variant-ligatures:normal;font-variant-caps:normal;font-variant-numeric:normal;font-variant-east-asian:normal;fill:#ffffff;stroke:#000000;stroke-opacity:1">D</tspan></text>
  <path
     d="m 186.50622,211.35164 v -97.20499 l 39.361,0.29326 c 41.40452,0.30847 49.9732,0.73794 64.93345,3.25451 16.51052,2.77735 29.84597,7.90549 40.64153,15.6287 24.84649,17.77531 37.33788,43.70289 37.33788,77.49981 0,26.92255 -7.02218,47.54947 -21.96821,64.52925 -12.68488,14.41096 -30.54159,24.52137 -50.26415,28.45941 -16.45737,3.28606 -28.4841,4.0162 -72.6556,4.41094 l -37.3859,0.3341 z m 84.33561,58.11399 c 26.27297,-4.49159 41.71151,-19.51519 45.81235,-44.58104 1.14655,-7.00814 1.14655,-20.65316 0,-27.6613 -4.13782,-25.29192 -20.17535,-40.41143 -47.28128,-44.57479 -2.27958,-0.35014 -10.68369,-0.78184 -18.6758,-0.95933 l -14.53112,-0.32273 v 59.61139 59.61138 h 14.0518 c 11.45395,0 15.26687,-0.20772 20.62405,-1.12358 z"
     id="path11517"
     style="stroke-width:0.564315;fill:#ffffff;fill-opacity:0" />
  <path
     style="fill:#ffffff;fill-opacity:0;stroke-width:0.564315"
     d="m 186.50622,211.35164 v -97.20499 l 39.361,0.29326 c 41.40452,0.30847 49.9732,0.73794 64.93345,3.25451 16.51052,2.77735 29.84597,7.90549 40.64153,15.6287 24.84649,17.77531 37.33788,43.70289 37.33788,77.49981 0,26.92255 -7.02218,47.54947 -21.96821,64.52925 -12.68488,14.41096 -30.54159,24.52137 -50.26415,28.45941 -16.45737,3.28606 -28.4841,4.0162 -72.6556,4.41094 l -37.3859,0.3341 z m 84.33561,58.11399 c 26.27297,-4.49159 41.71151,-19.51519 45.81235,-44.58104 1.14655,-7.00814 1.14655,-20.65316 0,-27.6613 -4.13782,-25.29192 -20.17535,-40.41143 -47.28128,-44.57479 -2.27958,-0.35014 -10.68369,-0.78184 -18.6758,-0.95933 l -14.53112,-0.32273 v 59.61139 59.61138 h 14.0518 c 11.45395,0 15.26687,-0.20772 20.62405,-1.12358 z"
     id="path16310" />
  <path
     style="fill:#ffffff;fill-opacity:0;stroke-width:0.564315"
     d="m 186.50622,211.35164 v -97.20499 l 39.361,0.29326 c 41.40452,0.30847 49.9732,0.73794 64.93345,3.25451 16.51052,2.77735 29.84597,7.90549 40.64153,15.6287 24.84649,17.77531 37.33788,43.70289 37.33788,77.49981 0,26.92255 -7.02218,47.54947 -21.96821,64.52925 -12.68488,14.41096 -30.54159,24.52137 -50.26415,28.45941 -16.45737,3.28606 -28.4841,4.0162 -72.6556,4.41094 l -37.3859,0.3341 z m 84.33561,58.11399 c 26.27297,-4.49159 41.71151,-19.51519 45.81235,-44.58104 1.14655,-7.00814 1.14655,-20.65316 0,-27.6613 -4.13782,-25.29192 -20.17535,-40.41143 -47.28128,-44.57479 -2.27958,-0.35014 -10.68369,-0.78184 -18.6758,-0.95933 l -14.53112,-0.32273 v 59.61139 59.61138 h 14.0518 c 11.45395,0 15.26687,-0.20772 20.62405,-1.12358 z"
     id="path16349" />
  <path
     style="fill:#ffffff;fill-opacity:0;stroke-width:0.564315"
     d="m 186.50622,211.35164 v -97.20499 l 39.361,0.29326 c 41.40452,0.30847 49.9732,0.73794 64.93345,3.25451 16.51052,2.77735 29.84597,7.90549 40.64153,15.6287 24.84649,17.77531 37.33788,43.70289 37.33788,77.49981 0,26.92255 -7.02218,47.54947 -21.96821,64.52925 -12.68488,14.41096 -30.54159,24.52137 -50.26415,28.45941 -16.45737,3.28606 -28.4841,4.0162 -72.6556,4.41094 l -37.3859,0.3341 z m 84.33561,58.11399 c 26.27297,-4.49159 41.71151,-19.51519 45.81235,-44.58104 1.14655,-7.00814 1.14655,-20.65316 0,-27.6613 -4.13782,-25.29192 -20.17535,-40.41143 -47.28128,-44.57479 -2.27958,-0.35014 -10.68369,-0.78184 -18.6758,-0.95933 l -14.53112,-0.32273 v 59.61139 59.61138 h 14.0518 c 11.45395,0 15.26687,-0.20772 20.62405,-1.12358 z"
     id="path16505" />
  <path
     style="fill:#ffffff;fill-opacity:0;stroke-width:0.564315"
     d="m 186.50622,211.35164 v -97.20499 l 39.361,0.29326 c 41.40452,0.30847 49.9732,0.73794 64.93345,3.25451 16.51052,2.77735 29.84597,7.90549 40.64153,15.6287 24.84649,17.77531 37.33788,43.70289 37.33788,77.49981 0,26.92255 -7.02218,47.54947 -21.96821,64.52925 -12.68488,14.41096 -30.54159,24.52137 -50.26415,28.45941 -16.45737,3.28606 -28.4841,4.0162 -72.6556,4.41094 l -37.3859,0.3341 z m 84.33561,58.11399 c 26.27297,-4.49159 41.71151,-19.51519 45.81235,-44.58104 1.14655,-7.00814 1.14655,-20.65316 0,-27.6613 -4.13782,-25.29192 -20.17535,-40.41143 -47.28128,-44.57479 -2.27958,-0.35014 -10.68369,-0.78184 -18.6758,-0.95933 l -14.53112,-0.32273 v 59.61139 59.61138 h 14.0518 c 11.45395,0 15.26687,-0.20772 20.62405,-1.12358 z"
     id="path16544" />
</svg>
